<svg width="22" height="26" viewBox="0 0 22 26" fill="none" xmlns="http://www.w3.org/2000/svg">
<path d="M18.128 13.784C18.099 10.561 20.767 8.99301 20.889 8.92001C19.378 6.71701 17.036 6.41601 16.213 6.39201C14.246 6.18501 12.338 7.56901 11.336 7.56901C10.314 7.56901 8.77103 6.41201 7.10803 6.44601C4.96803 6.47901 2.96603 7.71801 1.86803 9.64201C-0.397973 13.565 1.29203 19.33 3.46303 22.501C4.54903 24.054 5.81803 25.788 7.47903 25.727C9.10403 25.66 9.71103 24.691 11.672 24.691C13.615 24.691 14.185 25.727 15.879 25.688C17.623 25.66 18.721 24.128 19.769 22.561C21.024 20.781 21.528 19.028 21.548 18.938C21.507 18.924 18.161 17.647 18.128 13.784Z" fill="white"/>
<path d="M14.928 4.30601C15.802 3.21301 16.4 1.72601 16.234 0.21701C14.969 0.27301 13.387 1.09201 12.476 2.16101C11.67 3.10301 10.95 4.64701 11.136 6.09901C12.557 6.20501 14.016 5.38201 14.928 4.30601Z" fill="white"/>
</svg>
